<?xml version="1.0" standalone="no"?>
<!DOCTYPE svg PUBLIC "-//W3C//DTD SVG 20010904//EN"
 "http://www.w3.org/TR/2001/REC-SVG-20010904/DTD/svg10.dtd">
<svg version="1.0" xmlns="http://www.w3.org/2000/svg"
 width="352.000000pt" height="334.000000pt" viewBox="0 0 352.000000 334.000000"
 preserveAspectRatio="xMidYMid meet">

<g transform="translate(0.000000,334.000000) scale(0.100000,-0.100000)"
fill="#000000" stroke="none">
<path d="M0 1670 l0 -1670 1760 0 1760 0 0 1670 0 1670 -1760 0 -1760 0 0
-1670z m1720 1295 l0 -305 -45 0 -45 0 0 305 0 305 45 0 45 0 0 -305z m427 81
c-2 -6 -55 -150 -117 -321 -62 -170 -115 -313 -119 -317 -3 -3 -25 1 -47 10
l-42 17 104 285 c57 157 111 304 119 327 l16 41 45 -15 c25 -8 43 -20 41 -27z
m-733 -407 c86 -143 156 -264 156 -267 0 -4 -18 -17 -39 -29 l-39 -22 -148
247 c-81 136 -154 257 -161 268 -13 20 -11 23 19 42 18 11 38 21 44 21 6 1 82
-116 168 -260z m1090 232 c46 -40 46 -45 46 -516 l0 -445 30 0 30 0 0 394 0
394 24 6 c39 10 82 -4 113 -36 l28 -29 5 -717 5 -716 110 -41 c61 -23 144 -54
186 -69 l76 -27 7 -311 c4 -171 3 -315 -2 -320 -4 -4 -260 114 -567 263 -619
299 -627 304 -685 424 -43 87 -50 157 -50 482 0 319 5 356 56 384 38 20 102
14 130 -12 36 -33 45 -86 44 -233 -1 -72 -1 -137 -1 -143 1 -8 14 -13 31 -13
l30 0 0 479 c0 324 4 488 11 510 22 63 102 80 150 32 l29 -29 0 -335 0 -335
25 -4 c13 -3 27 -3 30 0 3 3 5 156 5 341 0 315 -1 338 -20 368 -10 18 -31 40
-46 49 -25 17 -26 21 -22 90 4 79 19 106 73 130 35 16 92 9 119 -15z m-1399
-443 c54 -42 55 -50 55 -528 l0 -441 28 3 27 3 5 395 5 395 41 3 c29 2 47 -3
68 -19 56 -44 56 -45 56 -589 l0 -501 33 3 32 3 5 170 c5 181 11 203 57 224
35 16 85 13 112 -5 47 -33 51 -62 51 -376 -1 -344 -7 -407 -49 -493 -49 -99
-100 -138 -292 -222 -212 -92 -523 -229 -769 -337 -107 -47 -200 -86 -207 -86
-14 0 -16 163 -4 469 l6 163 155 39 c85 21 163 39 172 39 10 0 26 -19 40 -47
32 -64 130 -136 219 -161 44 -12 69 0 69 32 0 28 -15 41 -55 50 -49 11 -138
77 -162 121 -39 71 -43 142 -43 783 l0 614 29 29 c22 21 39 29 66 29 27 0 44
-8 66 -29 l29 -29 0 -336 0 -336 30 0 30 0 0 330 c0 362 -2 374 -59 422 -29
25 -31 31 -31 96 0 56 4 75 21 96 40 50 117 62 164 24z"/>
</g>
</svg>
